<svg class="rich-terminal" viewBox="0 0 1312 733.1999999999999" xmlns="http://www.w3.org/2000/svg">
    <!-- Generated with Rich https://www.textualize.io -->
    <style>

    @font-face {
        font-family: "Fira Code";
        src: local("FiraCode-Regular"),
                url("https://cdnjs.cloudflare.com/ajax/libs/firacode/6.2.0/woff2/FiraCode-Regular.woff2") format("woff2"),
                url("https://cdnjs.cloudflare.com/ajax/libs/firacode/6.2.0/woff/FiraCode-Regular.woff") format("woff");
        font-style: normal;
        font-weight: 400;
    }
    @font-face {
        font-family: "Fira Code";
        src: local("FiraCode-Bold"),
                url("https://cdnjs.cloudflare.com/ajax/libs/firacode/6.2.0/woff2/FiraCode-Bold.woff2") format("woff2"),
                url("https://cdnjs.cloudflare.com/ajax/libs/firacode/6.2.0/woff/FiraCode-Bold.woff") format("woff");
        font-style: bold;
        font-weight: 700;
    }

    .terminal-2290675362-matrix {
        font-family: Fira Code, monospace;
        font-size: 20px;
        line-height: 24.4px;
        font-variant-east-asian: full-width;
    }

    .terminal-2290675362-title {
        font-size: 18px;
        font-weight: bold;
        font-family: arial;
    }

    .terminal-2290675362-r1 { fill: #e2e3e3 }
.terminal-2290675362-r2 { fill: #e1e1e1 }
.terminal-2290675362-r3 { fill: #c5c8c6 }
.terminal-2290675362-r4 { fill: #008139 }
.terminal-2290675362-r5 { fill: #211505;font-weight: bold }
.terminal-2290675362-r6 { fill: #ddedf9 }
    </style>

    <defs>
    <clipPath id="terminal-2290675362-clip-terminal">
      <rect x="0" y="0" width="1292.1999999999998" height="682.1999999999999" />
    </clipPath>
    <clipPath id="terminal-2290675362-line-0">
    <rect x="0" y="1.5" width="1293.2" height="24.65"/>
            </clipPath>
<clipPath id="terminal-2290675362-line-1">
    <rect x="0" y="25.9" width="1293.2" height="24.65"/>
            </clipPath>
<clipPath id="terminal-2290675362-line-2">
    <rect x="0" y="50.3" width="1293.2" height="24.65"/>
            </clipPath>
<clipPath id="terminal-2290675362-line-3">
    <rect x="0" y="74.7" width="1293.2" height="24.65"/>
            </clipPath>
<clipPath id="terminal-2290675362-line-4">
    <rect x="0" y="99.1" width="1293.2" height="24.65"/>
            </clipPath>
<clipPath id="terminal-2290675362-line-5">
    <rect x="0" y="123.5" width="1293.2" height="24.65"/>
            </clipPath>
<clipPath id="terminal-2290675362-line-6">
    <rect x="0" y="147.9" width="1293.2" height="24.65"/>
            </clipPath>
<clipPath id="terminal-2290675362-line-7">
    <rect x="0" y="172.3" width="1293.2" height="24.65"/>
            </clipPath>
<clipPath id="terminal-2290675362-line-8">
    <rect x="0" y="196.7" width="1293.2" height="24.65"/>
            </clipPath>
<clipPath id="terminal-2290675362-line-9">
    <rect x="0" y="221.1" width="1293.2" height="24.65"/>
            </clipPath>
<clipPath id="terminal-2290675362-line-10">
    <rect x="0" y="245.5" width="1293.2" height="24.65"/>
            </clipPath>
<clipPath id="terminal-2290675362-line-11">
    <rect x="0" y="269.9" width="1293.2" height="24.65"/>
            </clipPath>
<clipPath id="terminal-2290675362-line-12">
    <rect x="0" y="294.3" width="1293.2" height="24.65"/>
            </clipPath>
<clipPath id="terminal-2290675362-line-13">
    <rect x="0" y="318.7" width="1293.2" height="24.65"/>
            </clipPath>
<clipPath id="terminal-2290675362-line-14">
    <rect x="0" y="343.1" width="1293.2" height="24.65"/>
            </clipPath>
<clipPath id="terminal-2290675362-line-15">
    <rect x="0" y="367.5" width="1293.2" height="24.65"/>
            </clipPath>
<clipPath id="terminal-2290675362-line-16">
    <rect x="0" y="391.9" width="1293.2" height="24.65"/>
            </clipPath>
<clipPath id="terminal-2290675362-line-17">
    <rect x="0" y="416.3" width="1293.2" height="24.65"/>
            </clipPath>
<clipPath id="terminal-2290675362-line-18">
    <rect x="0" y="440.7" width="1293.2" height="24.65"/>
            </clipPath>
<clipPath id="terminal-2290675362-line-19">
    <rect x="0" y="465.1" width="1293.2" height="24.65"/>
            </clipPath>
<clipPath id="terminal-2290675362-line-20">
    <rect x="0" y="489.5" width="1293.2" height="24.65"/>
            </clipPath>
<clipPath id="terminal-2290675362-line-21">
    <rect x="0" y="513.9" width="1293.2" height="24.65"/>
            </clipPath>
<clipPath id="terminal-2290675362-line-22">
    <rect x="0" y="538.3" width="1293.2" height="24.65"/>
            </clipPath>
<clipPath id="terminal-2290675362-line-23">
    <rect x="0" y="562.7" width="1293.2" height="24.65"/>
            </clipPath>
<clipPath id="terminal-2290675362-line-24">
    <rect x="0" y="587.1" width="1293.2" height="24.65"/>
            </clipPath>
<clipPath id="terminal-2290675362-line-25">
    <rect x="0" y="611.5" width="1293.2" height="24.65"/>
            </clipPath>
<clipPath id="terminal-2290675362-line-26">
    <rect x="0" y="635.9" width="1293.2" height="24.65"/>
            </clipPath>
    </defs>

    <rect fill="#292929" stroke="rgba(255,255,255,0.35)" stroke-width="1" x="1" y="1" width="1310" height="731.2" rx="8"/><text class="terminal-2290675362-title" fill="#c5c8c6" text-anchor="middle" x="655" y="27">DatasetBrowser</text>
            <g transform="translate(26,22)">
            <circle cx="0" cy="0" r="7" fill="#ff5f57"/>
            <circle cx="22" cy="0" r="7" fill="#febc2e"/>
            <circle cx="44" cy="0" r="7" fill="#28c840"/>
            </g>
        
    <g transform="translate(9, 41)" clip-path="url(#terminal-2290675362-clip-terminal)">
    <rect fill="#24292f" x="0" y="1.5" width="24.4" height="24.65" shape-rendering="crispEdges"/><rect fill="#24292f" x="24.4" y="1.5" width="73.2" height="24.65" shape-rendering="crispEdges"/><rect fill="#24292f" x="97.6" y="1.5" width="97.6" height="24.65" shape-rendering="crispEdges"/><rect fill="#24292f" x="195.2" y="1.5" width="451.4" height="24.65" shape-rendering="crispEdges"/><rect fill="#1e1e1e" x="646.6" y="1.5" width="524.6" height="24.65" shape-rendering="crispEdges"/><rect fill="#1e1e1e" x="1171.2" y="1.5" width="122" height="24.65" shape-rendering="crispEdges"/><rect fill="#24292f" x="0" y="25.9" width="48.8" height="24.65" shape-rendering="crispEdges"/><rect fill="#24292f" x="48.8" y="25.9" width="24.4" height="24.65" shape-rendering="crispEdges"/><rect fill="#24292f" x="73.2" y="25.9" width="317.2" height="24.65" shape-rendering="crispEdges"/><rect fill="#24292f" x="390.4" y="25.9" width="256.2" height="24.65" shape-rendering="crispEdges"/><rect fill="#1e1e1e" x="646.6" y="25.9" width="134.2" height="24.65" shape-rendering="crispEdges"/><rect fill="#1e1e1e" x="780.8" y="25.9" width="512.4" height="24.65" shape-rendering="crispEdges"/><rect fill="#24292f" x="0" y="50.3" width="48.8" height="24.65" shape-rendering="crispEdges"/><rect fill="#24292f" x="48.8" y="50.3" width="48.8" height="24.65" shape-rendering="crispEdges"/><rect fill="#24292f" x="97.6" y="50.3" width="24.4" height="24.65" shape-rendering="crispEdges"/><rect fill="#24292f" x="122" y="50.3" width="317.2" height="24.65" shape-rendering="crispEdges"/><rect fill="#24292f" x="439.2" y="50.3" width="207.4" height="24.65" shape-rendering="crispEdges"/><rect fill="#1e1e1e" x="646.6" y="50.3" width="597.8" height="24.65" shape-rendering="crispEdges"/><rect fill="#1e1e1e" x="1244.4" y="50.3" width="48.8" height="24.65" shape-rendering="crispEdges"/><rect fill="#24292f" x="0" y="74.7" width="48.8" height="24.65" shape-rendering="crispEdges"/><rect fill="#24292f" x="48.8" y="74.7" width="48.8" height="24.65" shape-rendering="crispEdges"/><rect fill="#24292f" x="97.6" y="74.7" width="24.4" height="24.65" shape-rendering="crispEdges"/><rect fill="#24292f" x="122" y="74.7" width="317.2" height="24.65" shape-rendering="crispEdges"/><rect fill="#24292f" x="439.2" y="74.7" width="207.4" height="24.65" shape-rendering="crispEdges"/><rect fill="#1e1e1e" x="646.6" y="74.7" width="353.8" height="24.65" shape-rendering="crispEdges"/><rect fill="#1e1e1e" x="1000.4" y="74.7" width="292.8" height="24.65" shape-rendering="crispEdges"/><rect fill="#24292f" x="0" y="99.1" width="48.8" height="24.65" shape-rendering="crispEdges"/><rect fill="#24292f" x="48.8" y="99.1" width="48.8" height="24.65" shape-rendering="crispEdges"/><rect fill="#24292f" x="97.6" y="99.1" width="24.4" height="24.65" shape-rendering="crispEdges"/><rect fill="#24292f" x="122" y="99.1" width="317.2" height="24.65" shape-rendering="crispEdges"/><rect fill="#24292f" x="439.2" y="99.1" width="207.4" height="24.65" shape-rendering="crispEdges"/><rect fill="#1e1e1e" x="646.6" y="99.1" width="97.6" height="24.65" shape-rendering="crispEdges"/><rect fill="#1e1e1e" x="744.2" y="99.1" width="549" height="24.65" shape-rendering="crispEdges"/><rect fill="#24292f" x="0" y="123.5" width="48.8" height="24.65" shape-rendering="crispEdges"/><rect fill="#24292f" x="48.8" y="123.5" width="48.8" height="24.65" shape-rendering="crispEdges"/><rect fill="#24292f" x="97.6" y="123.5" width="48.8" height="24.65" shape-rendering="crispEdges"/><rect fill="#24292f" x="146.4" y="123.5" width="24.4" height="24.65" shape-rendering="crispEdges"/><rect fill="#24292f" x="170.8" y="123.5" width="317.2" height="24.65" shape-rendering="crispEdges"/><rect fill="#24292f" x="488" y="123.5" width="158.6" height="24.65" shape-rendering="crispEdges"/><rect fill="#1e1e1e" x="646.6" y="123.5" width="646.6" height="24.65" shape-rendering="crispEdges"/><rect fill="#24292f" x="0" y="147.9" width="48.8" height="24.65" shape-rendering="crispEdges"/><rect fill="#24292f" x="48.8" y="147.9" width="48.8" height="24.65" shape-rendering="crispEdges"/><rect fill="#24292f" x="97.6" y="147.9" width="48.8" height="24.65" shape-rendering="crispEdges"/><rect fill="#24292f" x="146.4" y="147.9" width="48.8" height="24.65" shape-rendering="crispEdges"/><rect fill="#24292f" x="195.2" y="147.9" width="24.4" height="24.65" shape-rendering="crispEdges"/><rect fill="#fea62b" x="219.6" y="147.9" width="317.2" height="24.65" shape-rendering="crispEdges"/><rect fill="#24292f" x="536.8" y="147.9" width="109.8" height="24.65" shape-rendering="crispEdges"/><rect fill="#1e1e1e" x="646.6" y="147.9" width="0" height="24.65" shape-rendering="crispEdges"/><rect fill="#1e1e1e" x="646.6" y="147.9" width="646.6" height="24.65" shape-rendering="crispEdges"/><rect fill="#24292f" x="0" y="172.3" width="48.8" height="24.65" shape-rendering="crispEdges"/><rect fill="#24292f" x="48.8" y="172.3" width="48.8" height="24.65" shape-rendering="crispEdges"/><rect fill="#24292f" x="97.6" y="172.3" width="24.4" height="24.65" shape-rendering="crispEdges"/><rect fill="#24292f" x="122" y="172.3" width="317.2" height="24.65" shape-rendering="crispEdges"/><rect fill="#24292f" x="439.2" y="172.3" width="207.4" height="24.65" shape-rendering="crispEdges"/><rect fill="#1e1e1e" x="646.6" y="172.3" width="646.6" height="24.65" shape-rendering="crispEdges"/><rect fill="#24292f" x="0" y="196.7" width="48.8" height="24.65" shape-rendering="crispEdges"/><rect fill="#24292f" x="48.8" y="196.7" width="48.8" height="24.65" shape-rendering="crispEdges"/><rect fill="#24292f" x="97.6" y="196.7" width="24.4" height="24.65" shape-rendering="crispEdges"/><rect fill="#24292f" x="122" y="196.7" width="317.2" height="24.65" shape-rendering="crispEdges"/><rect fill="#24292f" x="439.2" y="196.7" width="207.4" height="24.65" shape-rendering="crispEdges"/><rect fill="#1e1e1e" x="646.6" y="196.7" width="646.6" height="24.65" shape-rendering="crispEdges"/><rect fill="#24292f" x="0" y="221.1" width="48.8" height="24.65" shape-rendering="crispEdges"/><rect fill="#24292f" x="48.8" y="221.1" width="48.8" height="24.65" shape-rendering="crispEdges"/><rect fill="#24292f" x="97.6" y="221.1" width="24.4" height="24.65" shape-rendering="crispEdges"/><rect fill="#24292f" x="122" y="221.1" width="317.2" height="24.65" shape-rendering="crispEdges"/><rect fill="#24292f" x="439.2" y="221.1" width="207.4" height="24.65" shape-rendering="crispEdges"/><rect fill="#1e1e1e" x="646.6" y="221.1" width="646.6" height="24.65" shape-rendering="crispEdges"/><rect fill="#24292f" x="0" y="245.5" width="48.8" height="24.65" shape-rendering="crispEdges"/><rect fill="#24292f" x="48.8" y="245.5" width="48.8" height="24.65" shape-rendering="crispEdges"/><rect fill="#24292f" x="97.6" y="245.5" width="24.4" height="24.65" shape-rendering="crispEdges"/><rect fill="#24292f" x="122" y="245.5" width="317.2" height="24.65" shape-rendering="crispEdges"/><rect fill="#24292f" x="439.2" y="245.5" width="207.4" height="24.65" shape-rendering="crispEdges"/><rect fill="#1e1e1e" x="646.6" y="245.5" width="646.6" height="24.65" shape-rendering="crispEdges"/><rect fill="#24292f" x="0" y="269.9" width="48.8" height="24.65" shape-rendering="crispEdges"/><rect fill="#24292f" x="48.8" y="269.9" width="48.8" height="24.65" shape-rendering="crispEdges"/><rect fill="#24292f" x="97.6" y="269.9" width="24.4" height="24.65" shape-rendering="crispEdges"/><rect fill="#24292f" x="122" y="269.9" width="317.2" height="24.65" shape-rendering="crispEdges"/><rect fill="#24292f" x="439.2" y="269.9" width="207.4" height="24.65" shape-rendering="crispEdges"/><rect fill="#1e1e1e" x="646.6" y="269.9" width="646.6" height="24.65" shape-rendering="crispEdges"/><rect fill="#24292f" x="0" y="294.3" width="646.6" height="24.65" shape-rendering="crispEdges"/><rect fill="#1e1e1e" x="646.6" y="294.3" width="646.6" height="24.65" shape-rendering="crispEdges"/><rect fill="#24292f" x="0" y="318.7" width="646.6" height="24.65" shape-rendering="crispEdges"/><rect fill="#1e1e1e" x="646.6" y="318.7" width="646.6" height="24.65" shape-rendering="crispEdges"/><rect fill="#24292f" x="0" y="343.1" width="646.6" height="24.65" shape-rendering="crispEdges"/><rect fill="#1e1e1e" x="646.6" y="343.1" width="646.6" height="24.65" shape-rendering="crispEdges"/><rect fill="#24292f" x="0" y="367.5" width="646.6" height="24.65" shape-rendering="crispEdges"/><rect fill="#1e1e1e" x="646.6" y="367.5" width="646.6" height="24.65" shape-rendering="crispEdges"/><rect fill="#24292f" x="0" y="391.9" width="646.6" height="24.65" shape-rendering="crispEdges"/><rect fill="#1e1e1e" x="646.6" y="391.9" width="646.6" height="24.65" shape-rendering="crispEdges"/><rect fill="#24292f" x="0" y="416.3" width="646.6" height="24.65" shape-rendering="crispEdges"/><rect fill="#1e1e1e" x="646.6" y="416.3" width="646.6" height="24.65" shape-rendering="crispEdges"/><rect fill="#24292f" x="0" y="440.7" width="646.6" height="24.65" shape-rendering="crispEdges"/><rect fill="#1e1e1e" x="646.6" y="440.7" width="646.6" height="24.65" shape-rendering="crispEdges"/><rect fill="#24292f" x="0" y="465.1" width="646.6" height="24.65" shape-rendering="crispEdges"/><rect fill="#1e1e1e" x="646.6" y="465.1" width="646.6" height="24.65" shape-rendering="crispEdges"/><rect fill="#24292f" x="0" y="489.5" width="646.6" height="24.65" shape-rendering="crispEdges"/><rect fill="#1e1e1e" x="646.6" y="489.5" width="646.6" height="24.65" shape-rendering="crispEdges"/><rect fill="#24292f" x="0" y="513.9" width="646.6" height="24.65" shape-rendering="crispEdges"/><rect fill="#1e1e1e" x="646.6" y="513.9" width="646.6" height="24.65" shape-rendering="crispEdges"/><rect fill="#24292f" x="0" y="538.3" width="646.6" height="24.65" shape-rendering="crispEdges"/><rect fill="#1e1e1e" x="646.6" y="538.3" width="646.6" height="24.65" shape-rendering="crispEdges"/><rect fill="#24292f" x="0" y="562.7" width="646.6" height="24.65" shape-rendering="crispEdges"/><rect fill="#1e1e1e" x="646.6" y="562.7" width="646.6" height="24.65" shape-rendering="crispEdges"/><rect fill="#24292f" x="0" y="587.1" width="646.6" height="24.65" shape-rendering="crispEdges"/><rect fill="#1e1e1e" x="646.6" y="587.1" width="646.6" height="24.65" shape-rendering="crispEdges"/><rect fill="#24292f" x="0" y="611.5" width="646.6" height="24.65" shape-rendering="crispEdges"/><rect fill="#1e1e1e" x="646.6" y="611.5" width="646.6" height="24.65" shape-rendering="crispEdges"/><rect fill="#24292f" x="0" y="635.9" width="646.6" height="24.65" shape-rendering="crispEdges"/><rect fill="#1e1e1e" x="646.6" y="635.9" width="646.6" height="24.65" shape-rendering="crispEdges"/><rect fill="#24292f" x="0" y="660.3" width="646.6" height="24.65" shape-rendering="crispEdges"/><rect fill="#0178d4" x="646.6" y="660.3" width="646.6" height="24.65" shape-rendering="crispEdges"/>
    <g class="terminal-2290675362-matrix">
    <text class="terminal-2290675362-r1" x="0" y="20" textLength="24.4" clip-path="url(#terminal-2290675362-line-0)">▼&#160;</text><text class="terminal-2290675362-r1" x="24.4" y="20" textLength="73.2" clip-path="url(#terminal-2290675362-line-0)">Grid&#160;H</text><text class="terminal-2290675362-r1" x="97.6" y="20" textLength="97.6" clip-path="url(#terminal-2290675362-line-0)">ierarchy</text><text class="terminal-2290675362-r2" x="646.6" y="20" textLength="524.6" clip-path="url(#terminal-2290675362-line-0)">Left&#160;Edge:&#160;[0.3359375&#160;0.5&#160;&#160;&#160;&#160;&#160;&#160;&#160;0.328125&#160;]&#160;</text><text class="terminal-2290675362-r3" x="1293.2" y="20" textLength="12.2" clip-path="url(#terminal-2290675362-line-0)">
</text><text class="terminal-2290675362-r4" x="0" y="44.4" textLength="48.8" clip-path="url(#terminal-2290675362-line-1)">└──&#160;</text><text class="terminal-2290675362-r1" x="48.8" y="44.4" textLength="24.4" clip-path="url(#terminal-2290675362-line-1)">▼&#160;</text><text class="terminal-2290675362-r1" x="73.2" y="44.4" textLength="317.2" clip-path="url(#terminal-2290675362-line-1)">EnzoGrid_0001&#160;([32&#160;32&#160;32])</text><text class="terminal-2290675362-r2" x="646.6" y="44.4" textLength="134.2" clip-path="url(#terminal-2290675362-line-1)">code_length</text><text class="terminal-2290675362-r3" x="1293.2" y="44.4" textLength="12.2" clip-path="url(#terminal-2290675362-line-1)">
</text><text class="terminal-2290675362-r4" x="48.8" y="68.8" textLength="48.8" clip-path="url(#terminal-2290675362-line-2)">├──&#160;</text><text class="terminal-2290675362-r1" x="97.6" y="68.8" textLength="24.4" clip-path="url(#terminal-2290675362-line-2)">▶&#160;</text><text class="terminal-2290675362-r1" x="122" y="68.8" textLength="317.2" clip-path="url(#terminal-2290675362-line-2)">EnzoGrid_0002&#160;([16&#160;18&#160;16])</text><text class="terminal-2290675362-r2" x="646.6" y="68.8" textLength="597.8" clip-path="url(#terminal-2290675362-line-2)">Right&#160;Edge:&#160;[0.5&#160;&#160;&#160;&#160;&#160;0.65625&#160;0.5&#160;&#160;&#160;&#160;]&#160;code_length</text><text class="terminal-2290675362-r3" x="1293.2" y="68.8" textLength="12.2" clip-path="url(#terminal-2290675362-line-2)">
</text><text class="terminal-2290675362-r4" x="48.8" y="93.2" textLength="48.8" clip-path="url(#terminal-2290675362-line-3)">├──&#160;</text><text class="terminal-2290675362-r1" x="97.6" y="93.2" textLength="24.4" clip-path="url(#terminal-2290675362-line-3)">▶&#160;</text><text class="terminal-2290675362-r1" x="122" y="93.2" textLength="317.2" clip-path="url(#terminal-2290675362-line-3)">EnzoGrid_0003&#160;([16&#160;18&#160;16])</text><text class="terminal-2290675362-r2" x="646.6" y="93.2" textLength="353.8" clip-path="url(#terminal-2290675362-line-3)">Active&#160;Dimensions:&#160;[42&#160;40&#160;44]</text><text class="terminal-2290675362-r3" x="1293.2" y="93.2" textLength="12.2" clip-path="url(#terminal-2290675362-line-3)">
</text><text class="terminal-2290675362-r4" x="48.8" y="117.6" textLength="48.8" clip-path="url(#terminal-2290675362-line-4)">├──&#160;</text><text class="terminal-2290675362-r1" x="97.6" y="117.6" textLength="24.4" clip-path="url(#terminal-2290675362-line-4)">▼&#160;</text><text class="terminal-2290675362-r1" x="122" y="117.6" textLength="317.2" clip-path="url(#terminal-2290675362-line-4)">EnzoGrid_0004&#160;([18&#160;16&#160;16])</text><text class="terminal-2290675362-r2" x="646.6" y="117.6" textLength="97.6" clip-path="url(#terminal-2290675362-line-4)">Level:&#160;3</text><text class="terminal-2290675362-r3" x="1293.2" y="117.6" textLength="12.2" clip-path="url(#terminal-2290675362-line-4)">
</text><text class="terminal-2290675362-r4" x="48.8" y="142" textLength="48.8" clip-path="url(#terminal-2290675362-line-5)">│&#160;&#160;&#160;</text><text class="terminal-2290675362-r4" x="97.6" y="142" textLength="48.8" clip-path="url(#terminal-2290675362-line-5)">└──&#160;</text><text class="terminal-2290675362-r1" x="146.4" y="142" textLength="24.4" clip-path="url(#terminal-2290675362-line-5)">▼&#160;</text><text class="terminal-2290675362-r1" x="170.8" y="142" textLength="317.2" clip-path="url(#terminal-2290675362-line-5)">EnzoGrid_0106&#160;([30&#160;28&#160;28])</text><text class="terminal-2290675362-r3" x="1293.2" y="142" textLength="12.2" clip-path="url(#terminal-2290675362-line-5)">
</text><text class="terminal-2290675362-r4" x="48.8" y="166.4" textLength="48.8" clip-path="url(#terminal-2290675362-line-6)">│&#160;&#160;&#160;</text><text class="terminal-2290675362-r4" x="146.4" y="166.4" textLength="48.8" clip-path="url(#terminal-2290675362-line-6)">└──&#160;</text><text class="terminal-2290675362-r1" x="195.2" y="166.4" textLength="24.4" clip-path="url(#terminal-2290675362-line-6)">▶&#160;</text><text class="terminal-2290675362-r5" x="219.6" y="166.4" textLength="317.2" clip-path="url(#terminal-2290675362-line-6)">EnzoGrid_0107&#160;([42&#160;40&#160;44])</text><text class="terminal-2290675362-r3" x="1293.2" y="166.4" textLength="12.2" clip-path="url(#terminal-2290675362-line-6)">
</text><text class="terminal-2290675362-r4" x="48.8" y="190.8" textLength="48.8" clip-path="url(#terminal-2290675362-line-7)">├──&#160;</text><text class="terminal-2290675362-r1" x="97.6" y="190.8" textLength="24.4" clip-path="url(#terminal-2290675362-line-7)">▶&#160;</text><text class="terminal-2290675362-r1" x="122" y="190.8" textLength="317.2" clip-path="url(#terminal-2290675362-line-7)">EnzoGrid_0005&#160;([16&#160;16&#160;16])</text><text class="terminal-2290675362-r3" x="1293.2" y="190.8" textLength="12.2" clip-path="url(#terminal-2290675362-line-7)">
</text><text class="terminal-2290675362-r4" x="48.8" y="215.2" textLength="48.8" clip-path="url(#terminal-2290675362-line-8)">├──&#160;</text><text class="terminal-2290675362-r1" x="97.6" y="215.2" textLength="24.4" clip-path="url(#terminal-2290675362-line-8)">▶&#160;</text><text class="terminal-2290675362-r1" x="122" y="215.2" textLength="317.2" clip-path="url(#terminal-2290675362-line-8)">EnzoGrid_0006&#160;([16&#160;16&#160;16])</text><text class="terminal-2290675362-r3" x="1293.2" y="215.2" textLength="12.2" clip-path="url(#terminal-2290675362-line-8)">
</text><text class="terminal-2290675362-r4" x="48.8" y="239.6" textLength="48.8" clip-path="url(#terminal-2290675362-line-9)">├──&#160;</text><text class="terminal-2290675362-r1" x="97.6" y="239.6" textLength="24.4" clip-path="url(#terminal-2290675362-line-9)">▶&#160;</text><text class="terminal-2290675362-r1" x="122" y="239.6" textLength="317.2" clip-path="url(#terminal-2290675362-line-9)">EnzoGrid_0007&#160;([16&#160;16&#160;16])</text><text class="terminal-2290675362-r3" x="1293.2" y="239.6" textLength="12.2" clip-path="url(#terminal-2290675362-line-9)">
</text><text class="terminal-2290675362-r4" x="48.8" y="264" textLength="48.8" clip-path="url(#terminal-2290675362-line-10)">├──&#160;</text><text class="terminal-2290675362-r1" x="97.6" y="264" textLength="24.4" clip-path="url(#terminal-2290675362-line-10)">▶&#160;</text><text class="terminal-2290675362-r1" x="122" y="264" textLength="317.2" clip-path="url(#terminal-2290675362-line-10)">EnzoGrid_0008&#160;([16&#160;16&#160;16])</text><text class="terminal-2290675362-r3" x="1293.2" y="264" textLength="12.2" clip-path="url(#terminal-2290675362-line-10)">
</text><text class="terminal-2290675362-r4" x="48.8" y="288.4" textLength="48.8" clip-path="url(#terminal-2290675362-line-11)">└──&#160;</text><text class="terminal-2290675362-r1" x="97.6" y="288.4" textLength="24.4" clip-path="url(#terminal-2290675362-line-11)">▶&#160;</text><text class="terminal-2290675362-r1" x="122" y="288.4" textLength="317.2" clip-path="url(#terminal-2290675362-line-11)">EnzoGrid_0009&#160;([16&#160;16&#160;16])</text><text class="terminal-2290675362-r3" x="1293.2" y="288.4" textLength="12.2" clip-path="url(#terminal-2290675362-line-11)">
</text><text class="terminal-2290675362-r3" x="1293.2" y="312.8" textLength="12.2" clip-path="url(#terminal-2290675362-line-12)">
</text><text class="terminal-2290675362-r3" x="1293.2" y="337.2" textLength="12.2" clip-path="url(#terminal-2290675362-line-13)">
</text><text class="terminal-2290675362-r3" x="1293.2" y="361.6" textLength="12.2" clip-path="url(#terminal-2290675362-line-14)">
</text><text class="terminal-2290675362-r3" x="1293.2" y="386" textLength="12.2" clip-path="url(#terminal-2290675362-line-15)">
</text><text class="terminal-2290675362-r3" x="1293.2" y="410.4" textLength="12.2" clip-path="url(#terminal-2290675362-line-16)">
</text><text class="terminal-2290675362-r3" x="1293.2" y="434.8" textLength="12.2" clip-path="url(#terminal-2290675362-line-17)">
</text><text class="terminal-2290675362-r3" x="1293.2" y="459.2" textLength="12.2" clip-path="url(#terminal-2290675362-line-18)">
</text><text class="terminal-2290675362-r3" x="1293.2" y="483.6" textLength="12.2" clip-path="url(#terminal-2290675362-line-19)">
</text><text class="terminal-2290675362-r3" x="1293.2" y="508" textLength="12.2" clip-path="url(#terminal-2290675362-line-20)">
</text><text class="terminal-2290675362-r3" x="1293.2" y="532.4" textLength="12.2" clip-path="url(#terminal-2290675362-line-21)">
</text><text class="terminal-2290675362-r3" x="1293.2" y="556.8" textLength="12.2" clip-path="url(#terminal-2290675362-line-22)">
</text><text class="terminal-2290675362-r3" x="1293.2" y="581.2" textLength="12.2" clip-path="url(#terminal-2290675362-line-23)">
</text><text class="terminal-2290675362-r3" x="1293.2" y="605.6" textLength="12.2" clip-path="url(#terminal-2290675362-line-24)">
</text><text class="terminal-2290675362-r3" x="1293.2" y="630" textLength="12.2" clip-path="url(#terminal-2290675362-line-25)">
</text><text class="terminal-2290675362-r3" x="1293.2" y="654.4" textLength="12.2" clip-path="url(#terminal-2290675362-line-26)">
</text>
    </g>
    </g>
</svg>
